<svg width="12" height="12" viewBox="0 0 12 12" fill="none" xmlns="http://www.w3.org/2000/svg">
<path fill-rule="evenodd" clip-rule="evenodd" d="M8.5 0.380859C8.77614 0.380859 9 0.604717 9 0.880859V1.88086H9.5C10.6046 1.88086 11.5 2.77629 11.5 3.88086V9.61932C11.5 10.7239 10.6046 11.6193 9.5 11.6193H2.5C1.39543 11.6193 0.5 10.7239 0.5 9.61932V3.88086C0.5 2.77629 1.39543 1.88086 2.5 1.88086H3V0.880859C3 0.604717 3.22386 0.380859 3.5 0.380859C3.77614 0.380859 4 0.604717 4 0.880859V1.88086H8V0.880859C8 0.604717 8.22386 0.380859 8.5 0.380859ZM2.5 2.88086C1.94772 2.88086 1.5 3.32857 1.5 3.88086V9.61932C1.5 10.1716 1.94772 10.6193 2.5 10.6193H9.5C10.0523 10.6193 10.5 10.1716 10.5 9.61932V3.88086C10.5 3.32857 10.0523 2.88086 9.5 2.88086H2.5Z" fill="#008C3F"/>
<path d="M3.84999 5.30585C3.84999 4.89163 4.18578 4.55584 4.6 4.55584C5.01421 4.55584 5.35 4.89163 5.35 5.30585C5.35 5.72007 5.01421 6.05585 4.6 6.05585C4.18578 6.05585 3.84999 5.72007 3.84999 5.30585Z" fill="#008C3F"/>
<path d="M6.84999 5.30585C6.84999 4.89163 7.18578 4.55584 7.6 4.55584C8.01421 4.55584 8.35 4.89163 8.35 5.30585C8.35 5.72007 8.01421 6.05585 7.6 6.05585C7.18578 6.05585 6.84999 5.72007 6.84999 5.30585Z" fill="#008C3F"/>
<path d="M3.79999 7.40585C4.02021 7.24068 4.33234 7.28465 4.49843 7.50376L4.50075 7.50672C4.50373 7.51048 4.50938 7.51752 4.51765 7.52738C4.53423 7.54713 4.56109 7.57793 4.59771 7.61614C4.67136 7.69299 4.78203 7.79726 4.92533 7.90148C5.21386 8.11132 5.61276 8.30584 6.1 8.30584C6.58723 8.30584 6.98613 8.11132 7.27466 7.90148C7.41796 7.79726 7.52863 7.69299 7.60228 7.61614C7.6389 7.57793 7.66576 7.54713 7.68234 7.52738C7.69061 7.51752 7.69627 7.51048 7.69924 7.50672L7.70156 7.50376C7.86765 7.28465 8.17978 7.24068 8.4 7.40585C8.62091 7.57153 8.66569 7.88494 8.5 8.10585L8.49892 8.10729L8.49755 8.1091L8.49394 8.11381L8.48329 8.12743C8.47467 8.13832 8.463 8.15277 8.44832 8.17026C8.419 8.20519 8.3775 8.25252 8.32428 8.30806C8.21824 8.4187 8.06328 8.56444 7.86283 8.71022C7.46386 9.00038 6.86276 9.30585 6.1 9.30585C5.33723 9.30585 4.73613 9.00038 4.33716 8.71022C4.13671 8.56444 3.98175 8.4187 3.87572 8.30806C3.82249 8.25252 3.781 8.20519 3.75167 8.17026C3.737 8.15277 3.72532 8.13832 3.7167 8.12743L3.70605 8.11381L3.70244 8.1091L3.70107 8.10729L3.69999 8.10585C3.5343 7.88494 3.57908 7.57153 3.79999 7.40585Z" fill="#008C3F"/>
</svg>
