<svg width="12" height="12" viewBox="0 0 12 12" fill="none" xmlns="http://www.w3.org/2000/svg">
<path fill-rule="evenodd" clip-rule="evenodd" d="M8.5 0.380859C8.77614 0.380859 9 0.604717 9 0.880859V1.88086H9.5C10.6046 1.88086 11.5 2.77629 11.5 3.88086V9.61932C11.5 10.7239 10.6046 11.6193 9.5 11.6193H2.5C1.39543 11.6193 0.5 10.7239 0.5 9.61932V3.88086C0.5 2.77629 1.39543 1.88086 2.5 1.88086H3V0.880859C3 0.604717 3.22386 0.380859 3.5 0.380859C3.77614 0.380859 4 0.604717 4 0.880859V1.88086H8V0.880859C8 0.604717 8.22386 0.380859 8.5 0.380859ZM2.5 2.88086C1.94772 2.88086 1.5 3.32857 1.5 3.88086V9.61932C1.5 10.1716 1.94772 10.6193 2.5 10.6193H9.5C10.0523 10.6193 10.5 10.1716 10.5 9.61932V3.88086C10.5 3.32857 10.0523 2.88086 9.5 2.88086H2.5Z" fill="#B6156B"/>
<path d="M3.85 5.2611C3.85 4.84688 4.18579 4.5111 4.6 4.5111C5.01421 4.5111 5.35 4.84688 5.35 5.2611C5.35 5.67531 5.01421 6.0111 4.6 6.0111C4.18579 6.0111 3.85 5.67531 3.85 5.2611Z" fill="#B6156B"/>
<path d="M6.85 5.2611C6.85 4.84688 7.18579 4.5111 7.6 4.5111C8.01421 4.5111 8.35 4.84688 8.35 5.2611C8.35 5.67531 8.01421 6.0111 7.6 6.0111C7.18579 6.0111 6.85 5.67531 6.85 5.2611Z" fill="#B6156B"/>
<path d="M4.33716 7.85673C4.73613 7.56657 5.33723 7.2611 6.1 7.2611C6.86277 7.2611 7.46387 7.56657 7.86284 7.85673C8.06328 8.00251 8.21824 8.14824 8.32428 8.25889C8.3775 8.31443 8.419 8.36175 8.44832 8.39669C8.463 8.41418 8.47467 8.42863 8.48329 8.43951L8.49394 8.45314L8.49755 8.45785L8.49892 8.45966C8.49892 8.45966 8.5 8.4611 8.1 8.7611L8.5 8.4611C8.66569 8.68201 8.62091 8.99541 8.4 9.1611C8.17978 9.32626 7.86766 9.28229 7.70157 9.06318L7.69925 9.06022C7.69627 9.05646 7.69062 9.04942 7.68234 9.03956C7.66577 9.01981 7.63891 8.98901 7.60229 8.9508C7.52864 8.87395 7.41797 8.76968 7.27466 8.66546C6.98613 8.45562 6.58723 8.2611 6.1 8.2611C5.61277 8.2611 5.21387 8.45562 4.92534 8.66546C4.78203 8.76968 4.67136 8.87395 4.59771 8.9508C4.56109 8.98901 4.53423 9.01981 4.51765 9.03956C4.50938 9.04942 4.50373 9.05646 4.50075 9.06022L4.49864 9.06289C4.33256 9.282 4.02022 9.32626 3.8 9.1611C3.57909 8.99541 3.53431 8.68201 3.7 8.4611L3.70108 8.45966L3.70245 8.45785L3.70606 8.45314L3.71671 8.43951C3.72533 8.42863 3.737 8.41418 3.75168 8.39669C3.781 8.36175 3.8225 8.31443 3.87572 8.25889C3.98176 8.14824 4.13672 8.00251 4.33716 7.85673Z" fill="#B6156B"/>
</svg>
