<svg width="12" height="12" viewBox="0 0 12 12" fill="none" xmlns="http://www.w3.org/2000/svg">
<path fill-rule="evenodd" clip-rule="evenodd" d="M8.5 0.380859C8.77614 0.380859 9 0.604717 9 0.880859V1.88086H9.5C10.6046 1.88086 11.5 2.77629 11.5 3.88086V9.61932C11.5 10.7239 10.6046 11.6193 9.5 11.6193H2.5C1.39543 11.6193 0.5 10.7239 0.5 9.61932V3.88086C0.5 2.77629 1.39543 1.88086 2.5 1.88086H3V0.880859C3 0.604717 3.22386 0.380859 3.5 0.380859C3.77614 0.380859 4 0.604717 4 0.880859V1.88086H8V0.880859C8 0.604717 8.22386 0.380859 8.5 0.380859ZM2.5 2.88086C1.94772 2.88086 1.5 3.32857 1.5 3.88086V9.61932C1.5 10.1716 1.94772 10.6193 2.5 10.6193H9.5C10.0523 10.6193 10.5 10.1716 10.5 9.61932V3.88086C10.5 3.32857 10.0523 2.88086 9.5 2.88086H2.5Z" fill="#015AF5"/>
<path d="M3.75 5.50372C3.75 5.08951 4.08579 4.75372 4.5 4.75372C4.91421 4.75372 5.25 5.08951 5.25 5.50372C5.25 5.91794 4.91421 6.25372 4.5 6.25372C4.08579 6.25372 3.75 5.91794 3.75 5.50372Z" fill="#015AF5"/>
<path d="M6.75 5.50372C6.75 5.08951 7.08579 4.75372 7.5 4.75372C7.91421 4.75372 8.25 5.08951 8.25 5.50372C8.25 5.91794 7.91421 6.25372 7.5 6.25372C7.08579 6.25372 6.75 5.91794 6.75 5.50372Z" fill="#015AF5"/>
<path d="M3.5 8.50372C3.5 8.22758 3.72386 8.00372 4 8.00372H8C8.27614 8.00372 8.5 8.22758 8.5 8.50372C8.5 8.77987 8.27614 9.00372 8 9.00372H4C3.72386 9.00372 3.5 8.77987 3.5 8.50372Z" fill="#015AF5"/>
</svg>
