<svg viewBox="0 0 16 16" xmlns="http://www.w3.org/2000/svg">
  <style>
    path {
      fill: #000000;
    }
    @media (prefers-color-scheme: dark) {
      path {
        fill: #ffffff;
      }
    }
  </style>
  <path d="M4.23146 6.09256C4.23146 7.17318 3.35528 8.04934 2.27467 8.04934C1.19406 8.04934 0.318848 7.17318 0.318848 6.09256C0.318848 5.01195 1.19406 4.13672 2.27467 4.13672C3.35528 4.13672 4.23146 5.01195 4.23146 6.09256Z"/>
  <path d="M4.23146 9.98608C4.23146 11.0667 3.35528 11.9419 2.27467 11.9419C1.19406 11.9419 0.318848 11.0667 0.318848 9.98608C0.318848 8.90547 1.19406 8.0293 2.27467 8.0293C3.35528 8.0293 4.23146 8.90547 4.23146 9.98608Z"/>
  <path d="M5.8152 4.20404C5.05114 4.9681 3.86689 5.02274 3.16972 4.32652C2.47349 3.62935 2.5272 2.44509 3.29126 1.68103C4.05532 0.916973 5.23957 0.862326 5.93674 1.5595C6.63297 2.25572 6.57832 3.43998 5.8152 4.20404Z"/>
  <path d="M5.8152 14.3954C5.05114 15.1595 3.86689 15.2141 3.16972 14.517C2.47349 13.8207 2.5272 12.6365 3.29126 11.8724C4.05532 11.1084 5.23957 11.0537 5.93674 11.7509C6.63297 12.4471 6.57832 13.6314 5.8152 14.3954Z"/>
  <path d="M14.0021 5.80093C14.7662 5.03687 15.5057 4.53755 15.6546 4.68641C15.8025 4.83526 15.3041 5.57483 14.5401 6.33889C13.776 7.10295 13.0364 7.60133 12.8876 7.45342C12.7387 7.30456 13.2381 6.56499 14.0021 5.80093Z"/>
  <path d="M14.1153 9.83107C14.8794 9.06701 15.5681 8.51682 15.6547 8.60255C15.7405 8.68923 15.1903 9.37791 14.4262 10.142C13.6631 10.906 12.9735 11.4553 12.8877 11.3696C12.802 11.2838 13.3513 10.5951 14.1153 9.83107Z"/>
  <path d="M11.3123 2.24079C12.0764 1.47673 12.9997 1.16205 13.3756 1.53702C13.7515 1.91292 13.4368 2.83715 12.6727 3.60121C11.9087 4.36527 10.9845 4.67994 10.6085 4.30404C10.2336 3.92813 10.5483 3.00485 11.3123 2.24079Z"/>
  <path d="M11.4152 12.5453C12.1792 11.7812 13.0573 11.4204 13.3757 11.7388C13.6942 12.0573 13.3333 12.9353 12.5693 13.6994C11.8052 14.4635 10.9281 14.8243 10.6087 14.5059C10.2903 14.1865 10.6511 13.3094 11.4152 12.5453Z"/>
  <path d="M7.34049 13.4164C8.10455 12.6524 9.13713 12.446 9.64588 12.9548C10.1546 13.4635 9.94826 14.4961 9.1842 15.2601C8.42014 16.0242 7.38854 16.2305 6.87886 15.7218C6.37011 15.2121 6.57643 14.1805 7.34049 13.4164Z"/>
  <path d="M7.26706 0.699901C8.03018 -0.0641592 9.10608 -0.228089 9.66758 0.334357C10.23 0.896804 10.067 1.97176 9.30297 2.73582C8.53891 3.49988 7.46393 3.66287 6.90148 3.10137C6.33904 2.53892 6.503 1.46396 7.26706 0.699901Z"/>
</svg>
